<?xml version="1.0" encoding="UTF-8"?>
<!-- Generator: visioncortex VTracer 0.6.4 -->
<svg version="1.1" xmlns="http://www.w3.org/2000/svg" width="225" height="225">
<path d="M0 0 C74.25 0 148.5 0 225 0 C225 74.25 225 148.5 225 225 C150.75 225 76.5 225 0 225 C0 150.75 0 76.5 0 0 Z " fill="none" transform="translate(0,0)"/>
<path d="M0 0 C6.388 0.561 12.241 1.648 18.375 3.5 C19.229 3.756 20.083 4.013 20.963 4.277 C29.718 7.029 37.89 10.857 46.055 15.016 C47.819 15.908 49.604 16.757 51.391 17.602 C54.465 19.249 56.011 21.169 58 24 C57.01 24 56.02 24 55 24 C56.602 24.983 58.207 25.961 59.812 26.938 C60.706 27.483 61.599 28.028 62.52 28.59 C65.007 30.11 65.007 30.11 68 31 C63.285 24.083 58.551 17.244 53.312 10.707 C52 9 52 9 51 7 C54.995 8.37 57.8 10.257 61 13 C60.01 10.03 59.02 7.06 58 4 C66.875 8.437 70.417 18.176 74 27 C74.37 28.324 74.722 29.654 75 31 C67.32 35.16 59.189 38.019 51 41 C56.515 41.096 61.947 41.068 67.438 40.5 C73.299 39.899 79.113 39.908 85 40 C84.505 40.474 84.01 40.949 83.5 41.438 C81.885 42.759 81.885 42.759 82 44 C86.95 43.505 86.95 43.505 92 43 C91.67 43.99 91.34 44.98 91 46 C90.34 46 89.68 46 89 46 C88.67 47.32 88.34 48.64 88 50 C88.907 49.546 89.815 49.093 90.75 48.625 C95.924 46.374 101.45 45.775 107 45 C105.393 48.215 102.059 49.124 98.938 50.625 C97.943 51.112 97.943 51.112 96.928 51.609 C95.288 52.412 93.644 53.207 92 54 C92.66 54.66 93.32 55.32 94 56 C93.505 56.99 93.505 56.99 93 58 C94.32 58.66 95.64 59.32 97 60 C91.727 63.223 91.727 63.223 90 64 C89.34 63.67 88.68 63.34 88 63 C88.99 62.01 88.99 62.01 90 61 C87.875 61.979 85.75 62.958 83.625 63.938 C82.442 64.483 81.258 65.028 80.039 65.59 C78.35 66.374 76.665 67.167 75 68 C77.97 69.32 80.94 70.64 84 72 C83.34 73.65 82.68 75.3 82 77 C83.65 77.33 85.3 77.66 87 78 C86.34 78.66 85.68 79.32 85 80 C86.485 80.99 86.485 80.99 88 82 C86.68 82 85.36 82 84 82 C84 82.66 84 83.32 84 84 C84.897 84.217 84.897 84.217 85.812 84.438 C87.562 84.887 89.287 85.429 91 86 C90.505 87.98 90.505 87.98 90 90 C83.581 89.709 79.379 88.548 74 85 C74.66 84.34 75.32 83.68 76 83 C75.67 82.34 75.34 81.68 75 81 C76.32 80.67 77.64 80.34 79 80 C76.626 79.662 74.251 79.329 71.875 79 C71.21 78.905 70.545 78.809 69.859 78.711 C65.874 78.164 62.021 77.9 58 78 C58 78.33 58 78.66 58 79 C54.535 79.495 54.535 79.495 51 80 C52.65 80.99 54.3 81.98 56 83 C52.549 84.159 50.157 83.803 46.625 83.062 C39.722 81.793 32.997 81.814 26 82 C27.98 83.32 29.96 84.64 32 86 C30 87 30 87 27.215 86.293 C26.133 85.928 25.052 85.563 23.938 85.188 C22.311 84.652 22.311 84.652 20.652 84.105 C18 83 18 83 17 81 C18.65 80.01 20.3 79.02 22 78 C19.03 78 16.06 78 13 78 C13 77.34 13 76.68 13 76 C21.935 70.805 30.913 65.934 40.326 61.652 C40.996 61.347 41.665 61.041 42.355 60.727 C42.94 60.464 43.524 60.202 44.126 59.932 C46.5 58.751 48.74 57.385 51 56 C46.269 56.285 41.542 56.604 36.815 56.952 C35.214 57.066 33.612 57.17 32.01 57.266 C21.895 57.874 13.736 59.319 4.612 63.851 C3.75 64.23 2.888 64.609 2 65 C1.34 64.67 0.68 64.34 0 64 C0.771 63.518 1.542 63.036 2.336 62.539 C3.339 61.907 4.342 61.276 5.375 60.625 C6.373 59.999 7.37 59.372 8.398 58.727 C11.025 57.107 11.025 57.107 13 55 C13 54.01 13 53.02 13 52 C13.99 51.01 14.98 50.02 16 49 C11.38 49 6.76 49 2 49 C5.626 46.28 9.208 44.28 13.25 42.312 C13.9 41.992 14.549 41.672 15.219 41.342 C16.811 40.558 18.405 39.778 20 39 C17.03 38.67 14.06 38.34 11 38 C11.66 37.01 12.32 36.02 13 35 C10.36 35.33 7.72 35.66 5 36 C11.017 31.097 16.393 30.394 24 31 C24.33 31.33 24.66 31.66 25 32 C26.525 32.133 28.056 32.203 29.586 32.246 C30.517 32.279 31.447 32.312 32.406 32.346 C34.377 32.407 36.349 32.464 38.32 32.518 C39.254 32.552 40.187 32.586 41.148 32.621 C42.435 32.659 42.435 32.659 43.748 32.697 C46 33 46 33 49 35 C51.057 35.241 51.057 35.241 53.188 35.125 C54.446 35.084 55.704 35.042 57 35 C57 34.34 57 33.68 57 33 C51.428 27.527 45.129 23.855 38.117 20.555 C34.864 18.932 31.873 17.086 28.812 15.125 C19.754 9.429 9.977 4.858 0 1 C0 0.67 0 0.34 0 0 Z " fill="#F5F5F5" transform="translate(72,17)"/>
<path d="M0 0 C2.759 2.759 2.518 5.212 3 9 C3.33 9.33 3.66 9.66 4 10 C4.66 8.68 5.32 7.36 6 6 C6.66 6 7.32 6 8 6 C8.208 6.822 8.415 7.645 8.629 8.492 C11.268 18.056 15.212 25.002 22 32.188 C24 35 24 35 24 38.5 C23.013 41.953 21.754 44.873 20 48 C20.763 48.289 21.526 48.577 22.312 48.875 C25 50 25 50 28 52 C28.268 52.763 28.536 53.526 28.812 54.312 C30.413 57.935 32.958 59.517 36 62 C37.688 64.5 37.688 64.5 39 67 C39.557 67.928 40.114 68.856 40.688 69.812 C41.121 70.534 41.554 71.256 42 72 C52.649 71.305 59.797 65.749 67.262 58.5 C69.279 56.153 69.279 56.153 68.832 53.422 C68.557 52.623 68.283 51.823 68 51 C65.431 41.368 64.448 31.996 65 22 C65.495 21.505 65.495 21.505 66 21 C68.691 21.176 71.329 21.618 74 22 C74.66 18.7 75.32 15.4 76 12 C76.99 12.33 77.98 12.66 79 13 C81.567 18.809 81.687 23.489 79.5 29.375 C79.005 30.571 78.51 31.767 78 33 C80.027 31.697 82.015 30.365 84 29 C84.584 28.626 85.168 28.252 85.77 27.867 C87.708 26.577 87.708 26.577 90 24 C90.025 20.25 90.025 20.25 89 17 C87.68 16.67 86.36 16.34 85 16 C85 15.34 85 14.68 85 14 C87.875 13.875 87.875 13.875 91 14 C93 16 93 16 93.23 18.059 C93.216 18.844 93.202 19.629 93.188 20.438 C93.181 21.22 93.175 22.002 93.168 22.809 C93 25 93 25 92 28 C93.346 26.879 93.346 26.879 93.133 23.98 C93.129 22.103 93.129 22.103 93.125 20.188 C93.128 18.944 93.13 17.7 93.133 16.418 C93.028 13.712 92.811 11.557 92 9 C88.344 9.305 87.254 9.703 84.812 12.562 C84.214 13.367 83.616 14.171 83 15 C82.34 15 81.68 15 81 15 C80.485 11.395 80.882 10.169 83 7.125 C86.573 4.594 87.983 4.667 92.133 5.312 C94.48 6.177 95.455 7.026 97 9 C97.341 11.452 97.341 11.452 97.293 14.324 C97.283 15.352 97.274 16.38 97.264 17.439 C97.239 18.511 97.213 19.583 97.188 20.688 C97.167 22.313 97.167 22.313 97.146 23.971 C97.111 26.648 97.062 29.324 97 32 C97.639 32.268 98.279 32.536 98.938 32.812 C101 34 101 34 102 37 C102.66 37 103.32 37 104 37 C104.402 37.922 104.402 37.922 104.812 38.863 C106.986 43.345 108.476 46.31 113.312 48.062 C114.529 48.372 115.746 48.681 117 49 C116.487 53.029 114.667 54.52 111.562 57 C106.645 60.792 100.463 65 94 65 C93.492 62.001 92.994 59.001 92.5 56 C92.357 55.161 92.214 54.322 92.066 53.457 C89.906 40.188 89.906 40.188 92 36 C92.66 36 93.32 36 94 36 C94 35.34 94 34.68 94 34 C87.07 35.485 87.07 35.485 80 37 C79.567 38.691 79.134 40.382 78.688 42.125 C75.703 53.78 67.885 62.947 58.07 69.781 C53.149 72.678 48.367 74.868 42.625 75.188 C38.69 73.407 37.912 70.823 36 67 C35.01 66.505 35.01 66.505 34 66 C34 64.68 34 63.36 34 62 C33.422 61.773 32.845 61.546 32.25 61.312 C29.404 59.652 28.002 57.608 26 55 C23.416 52.29 21.119 50.079 18 48 C18.472 45.797 18.929 44.114 20.125 42.188 C21.5 38.75 20.99 36.526 20 33 C18.059 31.265 16.057 29.595 14 28 C13.303 26.346 12.639 24.677 12 23 C10.483 21.11 8.889 19.328 7.242 17.551 C6 16 6 16 6 14 C5.34 14 4.68 14 4 14 C4 17.63 4 21.26 4 25 C1.537 22.537 1.002 20.293 0 17 C-0.224 23.864 0.578 29.984 2 36.688 C4.286 47.602 4.286 47.602 4 53 C0.713 48.07 0.106 42.303 -1.125 36.562 C-1.402 35.341 -1.679 34.12 -1.965 32.861 C-6.213 13.202 -6.213 13.202 -2 4.25 C-1.629 3.43 -1.258 2.61 -0.875 1.766 C-0.586 1.183 -0.297 0.6 0 0 Z " fill="#F4F4F4" transform="translate(45,106)"/>
<path d="M0 0 C2.347 0.864 3.322 1.714 4.867 3.688 C5.208 6.139 5.208 6.139 5.16 9.012 C5.15 10.04 5.141 11.068 5.131 12.127 C5.106 13.199 5.081 14.271 5.055 15.375 C5.034 17 5.034 17 5.014 18.658 C4.978 21.335 4.929 24.011 4.867 26.688 C5.507 26.956 6.146 27.224 6.805 27.5 C8.867 28.688 8.867 28.688 9.867 31.688 C10.527 31.688 11.187 31.688 11.867 31.688 C12.135 32.302 12.403 32.917 12.68 33.551 C14.853 38.033 16.343 40.997 21.18 42.75 C22.397 43.059 23.613 43.369 24.867 43.688 C24.355 47.716 22.534 49.208 19.43 51.688 C14.513 55.48 8.33 59.688 1.867 59.688 C1.359 56.689 0.861 53.689 0.367 50.688 C0.224 49.848 0.081 49.009 -0.066 48.145 C-2.227 34.875 -2.227 34.875 -0.133 30.688 C0.527 30.688 1.187 30.688 1.867 30.688 C1.867 30.028 1.867 29.368 1.867 28.688 C0.671 29.017 -0.525 29.347 -1.758 29.688 C-5.305 30.566 -8.46 31.029 -12.133 30.688 C-13.123 30.028 -14.113 29.368 -15.133 28.688 C-14.133 26.688 -14.133 26.688 -12.008 25.938 C-8.075 24.228 -4.755 22.135 -2.133 18.688 C-2.018 14.887 -2.018 14.887 -3.133 11.688 C-4.453 11.358 -5.773 11.028 -7.133 10.688 C-7.133 10.028 -7.133 9.368 -7.133 8.688 C-4.258 8.562 -4.258 8.562 -1.133 8.688 C0.867 10.688 0.867 10.688 1.098 12.746 C1.076 13.924 1.076 13.924 1.055 15.125 C1.048 15.907 1.042 16.69 1.035 17.496 C0.867 19.688 0.867 19.688 -0.133 22.688 C1.213 21.567 1.213 21.567 1 18.668 C0.996 16.79 0.996 16.79 0.992 14.875 C0.995 13.631 0.997 12.387 1 11.105 C0.895 8.4 0.679 6.244 -0.133 3.688 C-3.789 3.992 -4.879 4.39 -7.32 7.25 C-7.918 8.054 -8.517 8.859 -9.133 9.688 C-9.793 9.688 -10.453 9.688 -11.133 9.688 C-11.648 6.083 -11.251 4.857 -9.133 1.812 C-5.56 -0.718 -4.15 -0.646 0 0 Z " fill="#F5F5F5" transform="translate(137.1328125,111.3125)"/>
<path d="M0 0 C0.534 0.557 1.067 1.114 1.617 1.688 C2.177 2.244 2.736 2.801 3.312 3.375 C3.702 3.808 4.091 4.241 4.492 4.688 C1.839 7.467 -0.826 9.727 -4.008 11.875 C-9.099 15.357 -13.978 19.08 -18.844 22.867 C-21.21 24.484 -22.715 25.277 -25.508 25.688 C-20.841 21.021 -16.174 16.354 -11.508 11.688 C-13.739 11.917 -15.968 12.172 -18.195 12.438 C-19.437 12.577 -20.678 12.716 -21.957 12.859 C-25.797 13.755 -27.666 15.014 -30.508 17.688 C-28.858 18.017 -27.208 18.347 -25.508 18.688 C-26.883 20.188 -26.883 20.188 -28.508 21.688 C-29.168 21.688 -29.828 21.688 -30.508 21.688 C-30.178 22.677 -29.848 23.668 -29.508 24.688 C-32.984 31.228 -38.086 36.711 -43.508 41.688 C-43.508 37.441 -41.69 35.302 -39.508 31.688 C-40.168 31.358 -40.828 31.028 -41.508 30.688 C-40.188 29.367 -38.868 28.047 -37.508 26.688 C-42.926 26.462 -47.283 27.221 -52.508 28.688 C-47.327 23.308 -41.544 19.055 -35.508 14.688 C-34.671 14.079 -33.835 13.471 -32.973 12.844 C-26.128 8.054 -19.72 6.552 -11.508 5.688 C-14.491 4.693 -16.708 4.492 -19.832 4.371 C-20.86 4.329 -21.888 4.287 -22.947 4.244 C-24.555 4.185 -24.555 4.185 -26.195 4.125 C-27.279 4.082 -28.362 4.039 -29.479 3.994 C-32.155 3.888 -34.831 3.786 -37.508 3.688 C-34.505 1.686 -33.212 1.309 -29.754 0.836 C-28.816 0.707 -27.878 0.578 -26.912 0.445 C-25.933 0.319 -24.954 0.193 -23.945 0.062 C-22.517 -0.139 -22.517 -0.139 -21.061 -0.344 C-4.802 -2.513 -4.802 -2.513 0 0 Z " fill="#EBEBEB" transform="translate(82.5078125,34.3125)"/>
<path d="M0 0 C2.759 2.759 2.518 5.212 3 9 C3.33 9.33 3.66 9.66 4 10 C4.66 8.68 5.32 7.36 6 6 C6.66 6 7.32 6 8 6 C8.208 6.822 8.415 7.645 8.629 8.492 C11.268 18.056 15.212 25.002 22 32.188 C24 35 24 35 24 38.5 C23.013 41.953 21.754 44.873 20 48 C20.763 48.289 21.526 48.577 22.312 48.875 C25 50 25 50 28 52 C28.268 52.763 28.536 53.526 28.812 54.312 C30.413 57.935 32.958 59.517 36 62 C37.688 64.5 37.688 64.5 39 67 C39.557 67.928 40.114 68.856 40.688 69.812 C41.121 70.534 41.554 71.256 42 72 C53.268 71.265 60.659 65.139 68 57 C69.485 57.495 69.485 57.495 71 58 C63.247 66.189 54.484 74.529 42.625 75.188 C38.69 73.407 37.912 70.823 36 67 C35.01 66.505 35.01 66.505 34 66 C34 64.68 34 63.36 34 62 C33.422 61.773 32.845 61.546 32.25 61.312 C29.404 59.652 28.002 57.608 26 55 C23.416 52.29 21.119 50.079 18 48 C18.472 45.797 18.929 44.114 20.125 42.188 C21.5 38.75 20.99 36.526 20 33 C18.059 31.265 16.057 29.595 14 28 C13.303 26.346 12.639 24.677 12 23 C10.483 21.11 8.889 19.328 7.242 17.551 C6 16 6 16 6 14 C5.34 14 4.68 14 4 14 C4 17.63 4 21.26 4 25 C1.537 22.537 1.002 20.293 0 17 C-0.224 23.864 0.578 29.984 2 36.688 C4.286 47.602 4.286 47.602 4 53 C0.713 48.07 0.106 42.303 -1.125 36.562 C-1.402 35.341 -1.679 34.12 -1.965 32.861 C-6.213 13.202 -6.213 13.202 -2 4.25 C-1.629 3.43 -1.258 2.61 -0.875 1.766 C-0.586 1.183 -0.297 0.6 0 0 Z " fill="#D2D2D2" transform="translate(45,106)"/>
<path d="M0 0 C0 0.66 0 1.32 0 2 C1.98 1.67 3.96 1.34 6 1 C5.34 1.66 4.68 2.32 4 3 C5.611 3.182 5.611 3.182 7.254 3.367 C8.69 3.536 10.126 3.705 11.562 3.875 C12.267 3.954 12.971 4.032 13.697 4.113 C18.313 4.666 22.562 5.612 27 7 C27 7.33 27 7.66 27 8 C25.964 8.049 24.927 8.098 23.859 8.148 C22.49 8.223 21.12 8.299 19.75 8.375 C19.068 8.406 18.386 8.437 17.684 8.469 C13.907 8.689 11.319 9.282 8 11 C1.642 11.529 -4.731 11.14 -11 10 C-11.66 11.32 -12.32 12.64 -13 14 C-10.03 14.495 -10.03 14.495 -7 15 C-7 15.33 -7 15.66 -7 16 C-8.65 16.33 -10.3 16.66 -12 17 C-10.02 18.32 -8.04 19.64 -6 21 C-8 22 -8 22 -10.785 21.293 C-11.867 20.928 -12.948 20.563 -14.062 20.188 C-15.147 19.83 -16.231 19.473 -17.348 19.105 C-20 18 -20 18 -21 16 C-19.35 15.01 -17.7 14.02 -16 13 C-18.97 13 -21.94 13 -25 13 C-25 12.34 -25 11.68 -25 11 C-22.459 9.561 -19.918 8.124 -17.375 6.688 C-16.662 6.283 -15.949 5.879 -15.215 5.463 C-13.149 4.297 -11.076 3.146 -9 2 C-7.899 1.388 -6.798 0.775 -5.664 0.145 C-3 -1 -3 -1 0 0 Z " fill="#E7E7E7" transform="translate(110,82)"/>
<path d="M0 0 C1.32 0 2.64 0 4 0 C4.66 1.65 5.32 3.3 6 5 C6.626 4.627 7.253 4.255 7.898 3.871 C9.124 3.161 9.124 3.161 10.375 2.438 C11.187 1.962 11.999 1.486 12.836 0.996 C13.55 0.667 14.264 0.339 15 0 C15.66 0.33 16.32 0.66 17 1 C15.68 1.99 14.36 2.98 13 4 C13.99 4.66 14.98 5.32 16 6 C14.418 6.649 12.834 7.294 11.25 7.938 C10.368 8.297 9.487 8.657 8.578 9.027 C6 10 6 10 2 11 C5.3 11.66 8.6 12.32 12 13 C12 13.33 12 13.66 12 14 C10.819 14.061 9.638 14.121 8.422 14.184 C6.865 14.268 5.307 14.353 3.75 14.438 C2.973 14.477 2.195 14.516 1.395 14.557 C0.263 14.619 0.263 14.619 -0.891 14.684 C-1.582 14.72 -2.273 14.757 -2.985 14.795 C-5.066 15.007 -6.986 15.445 -9 16 C-8.34 17.65 -7.68 19.3 -7 21 C-8.98 20.34 -10.96 19.68 -13 19 C-12.34 17.35 -11.68 15.7 -11 14 C-14.63 13.01 -18.26 12.02 -22 11 C-18.463 7.947 -15.129 5.963 -10.812 4.188 C-9.767 3.748 -8.722 3.308 -7.645 2.855 C-5 2 -5 2 -3 3 C-3.66 3.66 -4.32 4.32 -5 5 C-3.313 3.693 -1.646 2.358 0 1 C0 0.67 0 0.34 0 0 Z " fill="#101010" transform="translate(167,75)"/>
<path d="M0 0 C0.99 0.33 1.98 0.66 3 1 C5.69 21.271 5.69 21.271 5 30 C4 31 4 31 1.562 31.188 C-1 31 -1 31 -3 29 C-3.5 25.951 -3.814 23.074 -4 20 C-4.066 18.931 -4.131 17.863 -4.199 16.762 C-4.429 9.89 -4.146 5.572 0 0 Z " fill="#F5F5F5" transform="translate(131,146)"/>
<path d="M0 0 C1.204 3.754 1.099 7.332 1.062 11.25 C1.053 12.513 1.044 13.777 1.035 15.078 C1.024 16.042 1.012 17.007 1 18 C-0.98 18.99 -0.98 18.99 -3 20 C-2.673 19.438 -2.345 18.876 -2.008 18.297 C-0.882 15.731 -0.793 14.032 -0.875 11.25 C-0.902 10.051 -0.902 10.051 -0.93 8.828 C-0.953 8.225 -0.976 7.622 -1 7 C-3.31 6.34 -5.62 5.68 -8 5 C-8 5.66 -8 6.32 -8 7 C-7.072 7.155 -7.072 7.155 -6.125 7.312 C-4 8 -4 8 -2 11 C-2.096 14.499 -2.735 15.732 -5.215 18.238 C-6.113 18.923 -7.012 19.607 -7.938 20.312 C-8.833 21.01 -9.729 21.707 -10.652 22.426 C-13 24 -13 24 -15 24 C-14.125 18.25 -14.125 18.25 -13 16 C-12.847 12.47 -12.959 9.385 -14 6 C-13.134 5.907 -13.134 5.907 -12.25 5.812 C-9.117 4.681 -7.965 2.621 -6 0 C-3.509 -1.245 -2.589 -0.777 0 0 Z " fill="#1B1B1B" transform="translate(138,115)"/>
<path d="M0 0 C4.768 9.169 5.416 20.803 5 31 C3 28 3 28 2.188 26 C1.112 23.765 1.112 23.765 -1.531 22.797 C-4 21 -4 21 -4.637 17.891 C-4.662 16.089 -4.662 16.089 -4.688 14.25 C-4.869 9.101 -5.272 4.839 -7 0 C-3.88 -1.04 -2.962 -1.173 0 0 Z " fill="#EEEEEE" transform="translate(104,121)"/>
<path d="M0 0 C-0.478 1.938 -0.957 3.875 -1.438 5.812 C-1.704 6.891 -1.971 7.97 -2.246 9.082 C-2.761 11.074 -3.349 13.048 -4 15 C-4.15 17.064 -4.248 19.131 -4.316 21.199 C-4.358 22.408 -4.4 23.616 -4.443 24.861 C-4.483 26.124 -4.522 27.387 -4.562 28.688 C-4.627 30.599 -4.627 30.599 -4.693 32.549 C-4.8 35.699 -4.902 38.849 -5 42 C-5.66 41.67 -6.32 41.34 -7 41 C-8.142 37.072 -8.104 33.254 -8.062 29.188 C-8.053 28.026 -8.044 26.865 -8.035 25.668 C-8.024 24.788 -8.012 23.907 -8 23 C-8.66 23 -9.32 23 -10 23 C-10.33 23.99 -10.66 24.98 -11 26 C-11.673 17.299 -10.613 11.446 -6 4 C-6.99 4.33 -7.98 4.66 -9 5 C-9 4.34 -9 3.68 -9 3 C-5.633 0.568 -4.266 0 0 0 Z " fill="#E3E3E3" transform="translate(45,92)"/>
<path d="M0 0 C2.062 0.938 2.062 0.938 3.062 1.938 C5.062 1.978 7.063 1.98 9.062 1.938 C8.733 2.597 8.403 3.258 8.062 3.938 C7.403 3.938 6.742 3.938 6.062 3.938 C6.392 4.928 6.722 5.918 7.062 6.938 C3.587 13.478 -1.516 18.961 -6.938 23.938 C-6.938 19.691 -5.12 17.552 -2.938 13.938 C-3.597 13.608 -4.258 13.278 -4.938 12.938 C-3.617 11.617 -2.297 10.297 -0.938 8.938 C-6.356 8.712 -10.712 9.471 -15.938 10.938 C-5.533 -0.118 -5.533 -0.118 0 0 Z " fill="#F5F5F5" transform="translate(45.9375,52.0625)"/>
<path d="M0 0 C-1.315 2.932 -2.749 4.749 -5 7 C-5.414 7.749 -5.828 8.498 -6.254 9.27 C-8.313 12.489 -10.66 14.694 -13.5 17.25 C-14.022 17.721 -14.543 18.192 -15.081 18.677 C-20.241 23.296 -25.585 27.683 -31 32 C-31.66 31.67 -32.32 31.34 -33 31 C-31.25 28.771 -29.5 26.541 -27.75 24.312 C-27.259 23.687 -26.768 23.061 -26.262 22.416 C-25.292 21.181 -24.321 19.948 -23.347 18.717 C-22.169 17.216 -21.016 15.695 -19.867 14.172 C-18.079 12.092 -16.818 11.094 -14.375 9.938 C-10.829 7.902 -10.603 7.421 -9 4 C-3.778 0 -3.778 0 0 0 Z " fill="#F5F5F5" transform="translate(173,156)"/>
<path d="M0 0 C0.33 0.33 0.66 0.66 1 1 C1.33 1 1.66 1 2 1 C2.378 4.311 2.206 5.694 0.312 8.5 C-7.273 16.7 -7.273 16.7 -12 19 C-12.66 18.67 -13.32 18.34 -14 18 C-9.71 14.04 -5.42 10.08 -1 6 C-1.33 5.67 -1.66 5.34 -2 5 C-8.452 5.505 -14.395 6.066 -19 11 C-17.35 11.33 -15.7 11.66 -14 12 C-16 14 -16 14 -19.438 14.375 C-23 14 -23 14 -24.938 12 C-25.288 11.34 -25.639 10.68 -26 10 C-18.674 2.836 -10.363 -0.96 0 0 Z " fill="#E3E3E3" transform="translate(71,41)"/>
<path d="M0 0 C-2.994 11.676 -12.677 21.84 -22 29 C-19.693 20.233 -14.646 13.013 -8 7 C-10.64 7.66 -13.28 8.32 -16 9 C-13.505 6.184 -10.734 4.59 -7.438 2.812 C-6.467 2.283 -5.496 1.753 -4.496 1.207 C-2 0 -2 0 0 0 Z " fill="#F5F5F5" transform="translate(49,72)"/>
<path d="M0 0 C0 0.33 0 0.66 0 1 C-1.036 1.049 -2.073 1.098 -3.141 1.148 C-4.51 1.223 -5.88 1.299 -7.25 1.375 C-7.932 1.406 -8.614 1.437 -9.316 1.469 C-13.093 1.689 -15.681 2.282 -19 4 C-25.358 4.529 -31.731 4.14 -38 3 C-37 1 -37 1 -34.191 -0.07 C-21.622 -3.723 -12.7 -3.344 0 0 Z " fill="#161616" transform="translate(137,89)"/>
<path d="M0 0 C2.398 2.398 2.343 3.333 2.625 6.625 C2.7 7.442 2.775 8.26 2.852 9.102 C2.925 10.041 2.925 10.041 3 11 C1.68 11.33 0.36 11.66 -1 12 C-0.071 22.762 1.011 33.294 3.414 43.836 C3.994 46.969 4.106 49.823 4 53 C0.713 48.07 0.106 42.303 -1.125 36.562 C-1.402 35.341 -1.679 34.12 -1.965 32.861 C-6.213 13.202 -6.213 13.202 -2 4.25 C-1.629 3.43 -1.258 2.61 -0.875 1.766 C-0.586 1.183 -0.297 0.6 0 0 Z " fill="#DBDBDB" transform="translate(45,106)"/>
<path d="M0 0 C0.66 0.33 1.32 0.66 2 1 C0.68 1.99 -0.64 2.98 -2 4 C-1.01 4.66 -0.02 5.32 1 6 C-0.582 6.649 -2.166 7.294 -3.75 7.938 C-4.632 8.297 -5.513 8.657 -6.422 9.027 C-9 10 -9 10 -13 11 C-9.7 11.66 -6.4 12.32 -3 13 C-3 13.33 -3 13.66 -3 14 C-4.789 14.091 -4.789 14.091 -6.613 14.184 C-8.18 14.268 -9.746 14.353 -11.312 14.438 C-12.098 14.477 -12.884 14.516 -13.693 14.557 C-14.451 14.599 -15.208 14.64 -15.988 14.684 C-16.685 14.72 -17.381 14.757 -18.099 14.795 C-20.222 14.956 -20.222 14.956 -23 16 C-23.33 15.01 -23.66 14.02 -24 13 C-19.38 9.7 -14.76 6.4 -10 3 C-9.67 3.66 -9.34 4.32 -9 5 C-8.374 4.627 -7.747 4.255 -7.102 3.871 C-5.876 3.161 -5.876 3.161 -4.625 2.438 C-3.813 1.962 -3.001 1.486 -2.164 0.996 C-1.45 0.667 -0.736 0.339 0 0 Z " fill="#EBEBEB" transform="translate(182,75)"/>
<path d="M0 0 C3.688 3.389 6.404 6.211 8 11 C7.843 13.883 7.504 16.664 7.031 19.512 C6.736 22.068 6.736 22.068 8.469 23.832 C8.974 24.217 9.479 24.603 10 25 C7.625 24.812 7.625 24.812 5 24 C2.564 20.124 3.077 17.337 4 13 C4 11.68 4 10.36 4 9 C3.546 9.66 3.093 10.32 2.625 11 C2.089 11.66 1.552 12.32 1 13 C0.34 13 -0.32 13 -1 13 C-0.319 14.114 0.361 15.227 1.062 16.375 C2.223 18.273 2.223 18.273 3 20 C2.67 20.66 2.34 21.32 2 22 C-0.64 19.03 -3.28 16.06 -6 13 C-3.807 8.614 -2.086 7.487 2 5 C1.34 3.35 0.68 1.7 0 0 Z " fill="#F5F5F5" transform="translate(108,172)"/>
<path d="M0 0 C6.822 0.554 12.918 1.951 19.438 4 C20.334 4.273 21.231 4.547 22.154 4.828 C28.652 6.826 28.652 6.826 31 8 C30.34 9.98 29.68 11.96 29 14 C23.153 11.795 17.579 8.976 11.949 6.277 C8.007 4.396 4.091 2.543 0 1 C0 0.67 0 0.34 0 0 Z " fill="#EDEDED" transform="translate(72,17)"/>
<path d="M0 0 C2.303 0.848 3.313 1.793 4.867 3.688 C5.208 5.589 5.208 5.589 5.16 7.699 C5.15 8.457 5.141 9.214 5.131 9.994 C5.106 10.78 5.081 11.566 5.055 12.375 C5.034 13.571 5.034 13.571 5.014 14.791 C4.978 16.757 4.925 18.722 4.867 20.688 C3.877 20.358 2.887 20.028 1.867 19.688 C1.207 14.407 0.547 9.127 -0.133 3.688 C-5.701 4.801 -5.974 5.44 -9.133 9.688 C-9.793 9.688 -10.453 9.688 -11.133 9.688 C-11.648 6.083 -11.251 4.857 -9.133 1.812 C-5.56 -0.718 -4.15 -0.646 0 0 Z " fill="#F5F5F5" transform="translate(137.1328125,111.3125)"/>
<path d="M0 0 C2 3 2 3 1.934 5.418 C0.695 8.843 -1.06 10.12 -3.938 12.312 C-4.833 13.01 -5.729 13.707 -6.652 14.426 C-9 16 -9 16 -11 16 C-10.233 9.561 -7.77 0 0 0 Z " fill="#F5F5F5" transform="translate(134,123)"/>
<path d="M0 0 C6.334 -0.691 9.608 0.398 14.746 4.133 C18.42 7.177 21.75 10.511 25 14 C20.567 14 17.48 11.867 13.625 9.812 C12.87 9.425 12.114 9.038 11.336 8.639 C6.808 6.244 3.413 3.827 0 0 Z " fill="#F5F5F5" transform="translate(145,106)"/>
<path d="M0 0 C8.431 -0.721 13.803 0.655 21 5 C21.94 5.55 22.879 6.101 23.848 6.668 C26.247 8.089 28.629 9.532 31 11 C27.131 12.29 25.972 11.421 22.25 9.875 C17.108 7.805 11.953 5.918 6.688 4.188 C5.691 3.86 5.691 3.86 4.675 3.525 C3.117 3.014 1.559 2.507 0 2 C0 1.34 0 0.68 0 0 Z " fill="#CECECE" transform="translate(61,22)"/>
<path d="M0 0 C3.949 0.628 7.199 1.865 10.812 3.562 C12.276 4.245 12.276 4.245 13.77 4.941 C14.506 5.291 15.242 5.64 16 6 C15.625 8.438 15.625 8.438 15 11 C14.01 11.495 14.01 11.495 13 12 C10.285 10.637 10.285 10.637 7.062 8.688 C6.002 8.052 4.941 7.416 3.848 6.762 C1.877 5.542 -0.072 4.286 -2 3 C-1.34 2.01 -0.68 1.02 0 0 Z " fill="#101010" transform="translate(74,19)"/>
<path d="M0 0 C1.253 2.063 2.045 3.412 1.859 5.855 C0.634 8.914 -1.335 10.419 -3.812 12.562 C-4.685 13.327 -5.558 14.091 -6.457 14.879 C-8.594 16.661 -10.753 18.361 -13 20 C-13.66 19.67 -14.32 19.34 -15 19 C-13.25 16.771 -11.5 14.541 -9.75 12.312 C-9.259 11.687 -8.768 11.061 -8.262 10.416 C-5.524 6.931 -2.775 3.456 0 0 Z " fill="#E4E4E4" transform="translate(155,168)"/>
<path d="M0 0 C3.089 0.343 4.771 0.822 7.25 2.75 C9.178 5.229 9.657 6.911 10 10 C7.311 11.008 5.583 11.227 2.887 10.176 C0.892 9.166 -1.065 8.119 -3 7 C-2.67 6.34 -2.34 5.68 -2 5 C-1.34 5.33 -0.68 5.66 0 6 C0 4.02 0 2.04 0 0 Z " fill="#F5F5F5" transform="translate(77,132)"/>
<path d="M0 0 C2 1 2 1 3.125 4.062 C3.414 5.032 3.703 6.001 4 7 C1.03 8.65 -1.94 10.3 -5 12 C-5.99 11.34 -6.98 10.68 -8 10 C-8.33 10.66 -8.66 11.32 -9 12 C-9.33 10.35 -9.66 8.7 -10 7 C-9.446 6.662 -8.891 6.325 -8.32 5.977 C-7.596 5.531 -6.871 5.085 -6.125 4.625 C-5.046 3.964 -5.046 3.964 -3.945 3.289 C-1.882 2.015 -1.882 2.015 0 0 Z " fill="#0A0A0A" transform="translate(107,171)"/>
<path d="M0 0 C0.66 0 1.32 0 2 0 C2.33 3.63 2.66 7.26 3 11 C2.01 10.67 1.02 10.34 0 10 C0 9.34 0 8.68 0 8 C-0.66 8 -1.32 8 -2 8 C-2 11.63 -2 15.26 -2 19 C-5.094 15.906 -5.937 12.448 -6.125 8.125 C-6.084 7.424 -6.042 6.722 -6 6 C-5.381 5.752 -4.763 5.505 -4.125 5.25 C-1.649 3.794 -1.049 2.622 0 0 Z " fill="#EEEEEE" transform="translate(51,112)"/>
<path d="M0 0 C3.591 1.334 6.846 2.81 10 5 C10.33 5.99 10.66 6.98 11 8 C10.01 9.485 10.01 9.485 9 11 C5.625 10.75 5.625 10.75 2 10 C0.625 8.188 0.625 8.188 0 6 C-0.227 5.299 -0.454 4.597 -0.688 3.875 C-1 2 -1 2 0 0 Z " fill="#0A0A0A" transform="translate(147,109)"/>
<path d="M0 0 C0 1.65 0 3.3 0 5 C2.97 5.495 2.97 5.495 6 6 C5.01 6.495 5.01 6.495 4 7 C4 7.66 4 8.32 4 9 C5.65 9 7.3 9 9 9 C9 9.66 9 10.32 9 11 C6.188 11.688 6.188 11.688 3 12 C1.125 10.562 1.125 10.562 0 9 C0.66 8.67 1.32 8.34 2 8 C-0.97 7.67 -3.94 7.34 -7 7 C-6.34 6.01 -5.68 5.02 -5 4 C-7.64 4.33 -10.28 4.66 -13 5 C-8.776 1.558 -5.499 0 0 0 Z " fill="#BABABA" transform="translate(90,48)"/>
<path d="M0 0 C0 1.32 0 2.64 0 4 C-3.38 5.04 -6.478 5.08 -10 5 C-10 5.33 -10 5.66 -10 6 C-14.455 6.495 -14.455 6.495 -19 7 C-19.33 6.34 -19.66 5.68 -20 5 C-19.257 4.856 -18.515 4.711 -17.75 4.562 C-15.48 4.098 -13.242 3.581 -11 3 C-11 2.34 -11 1.68 -11 1 C-13.31 1 -15.62 1 -18 1 C-18 0.67 -18 0.34 -18 0 C-15.563 -0.195 -13.126 -0.381 -10.688 -0.562 C-9.997 -0.619 -9.307 -0.675 -8.596 -0.732 C-5.375 -0.966 -3.097 -1.032 0 0 Z " fill="#BCBCBC" transform="translate(140,90)"/>
<path d="M0 0 C0.33 0 0.66 0 1 0 C1.505 3.249 2.003 6.5 2.5 9.75 C2.643 10.67 2.786 11.591 2.934 12.539 C3.069 13.429 3.204 14.318 3.344 15.234 C3.469 16.051 3.595 16.868 3.725 17.71 C4 20 4 20 4 24 C3.34 24 2.68 24 2 24 C2 25.65 2 27.3 2 29 C1.67 29 1.34 29 1 29 C0.661 25.813 0.33 22.625 0 19.438 C-0.095 18.542 -0.191 17.647 -0.289 16.725 C-1.663 3.326 -1.663 3.326 0 0 Z " fill="#2D2D2D" transform="translate(135,146)"/>
<path d="M0 0 C1.65 0 3.3 0 5 0 C5 0.99 5 1.98 5 3 C7.97 3.495 7.97 3.495 11 4 C11 4.33 11 4.66 11 5 C9.35 5.33 7.7 5.66 6 6 C7.98 7.32 9.96 8.64 12 10 C10 11 10 11 7.215 10.293 C6.133 9.928 5.052 9.563 3.938 9.188 C2.853 8.83 1.769 8.473 0.652 8.105 C-2 7 -2 7 -3 5 C-1.35 4.01 0.3 3.02 2 2 C1.34 1.34 0.68 0.68 0 0 Z " fill="#F5F5F5" transform="translate(92,93)"/>
<path d="M0 0 C0.66 0.33 1.32 0.66 2 1 C0.68 1.99 -0.64 2.98 -2 4 C-1.01 4.66 -0.02 5.32 1 6 C-0.599 6.699 -2.205 7.384 -3.812 8.062 C-4.706 8.445 -5.599 8.828 -6.52 9.223 C-9 10 -9 10 -12 9 C-12.688 6.938 -12.688 6.938 -13 5 C-11.68 4.34 -10.36 3.68 -9 3 C-9 3.66 -9 4.32 -9 5 C-8.374 4.627 -7.747 4.255 -7.102 3.871 C-6.284 3.398 -5.467 2.925 -4.625 2.438 C-3.813 1.962 -3.001 1.486 -2.164 0.996 C-1.45 0.667 -0.736 0.339 0 0 Z " fill="#DBDBDB" transform="translate(182,75)"/>
<path d="M0 0 C0.66 1.98 1.32 3.96 2 6 C-4.27 6 -10.54 6 -17 6 C-17 5.67 -17 5.34 -17 5 C-11.555 4.505 -11.555 4.505 -6 4 C-7.65 3.67 -9.3 3.34 -11 3 C-10 1 -10 1 -6.625 -0.188 C-3 -1 -3 -1 0 0 Z " fill="#262626" transform="translate(179,84)"/>
<path d="M0 0 C1.2 1.799 2.379 3.613 3.516 5.453 C6.259 9.877 8.862 14.01 12.5 17.75 C15.067 20.555 15.007 20.773 14.875 24.938 C14.586 25.948 14.297 26.959 14 28 C12 26 12 26 11.75 22.688 C10.778 17.911 8.767 16.921 5 14 C4.278 12.356 3.606 10.689 3 9 C2.278 8.34 1.556 7.68 0.812 7 C0.214 6.34 -0.384 5.68 -1 5 C-0.75 2.25 -0.75 2.25 0 0 Z " fill="#CFCFCF" transform="translate(54,120)"/>
<path d="M0 0 C-0.99 3.96 -1.98 7.92 -3 12 C-5.97 11.505 -5.97 11.505 -9 11 C-8.01 8.69 -7.02 6.38 -6 4 C-6.99 4.33 -7.98 4.66 -9 5 C-9 4.34 -9 3.68 -9 3 C-5.633 0.568 -4.266 0 0 0 Z " fill="#E1E1E1" transform="translate(45,92)"/>
<path d="M0 0 C1.32 0.66 2.64 1.32 4 2 C3.34 3.32 2.68 4.64 2 6 C1.34 6 0.68 6 0 6 C0.681 7.114 1.361 8.227 2.062 9.375 C3.223 11.273 3.223 11.273 4 13 C3.67 13.66 3.34 14.32 3 15 C0.36 12.03 -2.28 9.06 -5 6 C-3 2 -3 2 0 0 Z " fill="#E1E1E1" transform="translate(107,179)"/>
<path d="M0 0 C0 0.66 0 1.32 0 2 C-2.934 3.175 -5.873 4.339 -8.812 5.5 C-9.646 5.834 -10.479 6.168 -11.338 6.512 C-12.14 6.828 -12.943 7.143 -13.77 7.469 C-14.508 7.762 -15.246 8.055 -16.007 8.357 C-18 9 -18 9 -21 9 C-21 8.34 -21 7.68 -21 7 C-18.253 5.825 -15.503 4.66 -12.75 3.5 C-11.973 3.166 -11.195 2.832 -10.395 2.488 C-9.64 2.172 -8.886 1.857 -8.109 1.531 C-7.418 1.238 -6.727 0.945 -6.015 0.643 C-4 0 -4 0 0 0 Z " fill="#E3E3E3" transform="translate(87,124)"/>
<path d="M0 0 C-7.92 3.96 -7.92 3.96 -16 8 C-16 7.34 -16 6.68 -16 6 C-16.66 5.67 -17.32 5.34 -18 5 C-18 4.34 -18 3.68 -18 3 C-15.565 2.302 -13.128 1.616 -10.688 0.938 C-9.652 0.639 -9.652 0.639 -8.596 0.334 C-3.34 -1.113 -3.34 -1.113 0 0 Z " fill="#EBEBEB" transform="translate(179,63)"/>
<path d="M0 0 C1 3 1 3 0.062 5.188 C-0.463 6.085 -0.463 6.085 -1 7 C-0.237 7.289 0.526 7.577 1.312 7.875 C4 9 4 9 7 11 C7.289 11.784 7.578 12.567 7.875 13.375 C9.275 16.641 11.141 17.969 14 20 C13.67 21.32 13.34 22.64 13 24 C13 23.01 13 22.02 13 21 C12.422 20.773 11.845 20.546 11.25 20.312 C8.404 18.652 7.002 16.608 5 14 C2.416 11.29 0.119 9.079 -3 7 C-2.387 4.038 -1.746 2.619 0 0 Z " fill="#D8D8D8" transform="translate(66,147)"/>
<path d="M0 0 C0.99 0.66 1.98 1.32 3 2 C2.649 2.66 2.299 3.32 1.938 4 C0.671 8.051 1.294 10.834 2 15 C1.01 14.67 0.02 14.34 -1 14 C-1.729 12.36 -2.387 10.687 -3 9 C-3.557 8.113 -4.114 7.226 -4.688 6.312 C-5.121 5.549 -5.554 4.786 -6 4 C-5.67 3.34 -5.34 2.68 -5 2 C-4.67 2.99 -4.34 3.98 -4 5 C-3.34 5 -2.68 5 -2 5 C-1.34 3.35 -0.68 1.7 0 0 Z " fill="#2A2A2A" transform="translate(111,180)"/>
<path d="M0 0 C0.66 0.66 1.32 1.32 2 2 C1.464 5.536 1.464 5.536 0 7 C1.65 7.33 3.3 7.66 5 8 C3 10 3 10 -0.438 10.375 C-4 10 -4 10 -5.938 8 C-6.288 7.34 -6.639 6.68 -7 6 C-4.69 4.02 -2.38 2.04 0 0 Z " fill="#F5F5F5" transform="translate(52,45)"/>
<path d="M0 0 C4.104 0.518 5.957 2.646 8.75 5.562 C9.949 6.802 9.949 6.802 11.172 8.066 C11.775 8.704 12.378 9.343 13 10 C9.51 10 7.885 9.096 4.812 7.5 C3.911 7.036 3.01 6.572 2.082 6.094 C1.395 5.733 0.708 5.372 0 5 C0 3.35 0 1.7 0 0 Z " fill="#D8D8D8" transform="translate(157,110)"/>
<path d="M0 0 C2.691 0.176 5.329 0.618 8 1 C8.33 1.99 8.66 2.98 9 4 C1.571 7.286 1.571 7.286 -2 8 C-1.125 1.125 -1.125 1.125 0 0 Z " fill="#F5F5F5" transform="translate(120,52)"/>
<path d="M0 0 C2.031 3.51 2.722 6.978 3.5 10.938 C4.334 15.177 5.257 19.04 7 23 C2.462 18.82 0.171 15.915 -0.195 9.668 C-0.172 8.519 -0.149 7.371 -0.125 6.188 C-0.107 5.026 -0.089 3.865 -0.07 2.668 C-0.047 1.788 -0.024 0.907 0 0 Z " fill="#F5F5F5" transform="translate(59,112)"/>
<path d="M0 0 C0.66 0.33 1.32 0.66 2 1 C1.543 5.682 -0.191 7.631 -3.562 10.812 C-4.802 11.998 -4.802 11.998 -6.066 13.207 C-6.704 13.799 -7.343 14.39 -8 15 C-8 11.623 -7.55 11.067 -5.562 8.5 C-3.803 6.214 -2.933 4.8 -2 2 C-1.34 2 -0.68 2 0 2 C0 1.34 0 0.68 0 0 Z " fill="#E8E8E8" transform="translate(47,61)"/>
<path d="M0 0 C0.33 0.99 0.66 1.98 1 3 C-2.622 8.294 -7.185 13.171 -13 16 C-13.66 15.67 -14.32 15.34 -15 15 C-13.627 13.753 -13.627 13.753 -12.227 12.48 C-11.026 11.383 -9.825 10.285 -8.625 9.188 C-8.022 8.64 -7.418 8.093 -6.797 7.529 C-6.217 6.998 -5.637 6.466 -5.039 5.918 C-4.505 5.431 -3.971 4.944 -3.42 4.442 C-1.765 2.853 -1.765 2.853 0 0 Z " fill="#DBDBDB" transform="translate(72,44)"/>
<path d="M0 0 C-0.33 0.99 -0.66 1.98 -1 3 C-6.94 3 -12.88 3 -19 3 C-13.48 -0.68 -6.477 -0.138 0 0 Z " fill="#F5F5F5" transform="translate(64,35)"/>
<path d="M0 0 C0.99 0.33 1.98 0.66 3 1 C2.01 2.98 1.02 4.96 0 7 C-0.66 6.34 -1.32 5.68 -2 5 C-2.99 5.33 -3.98 5.66 -5 6 C-5.33 6.99 -5.66 7.98 -6 9 C-6.99 8.67 -7.98 8.34 -9 8 C-7.68 6.68 -6.36 5.36 -5 4 C-5.99 3.34 -6.98 2.68 -8 2 C-7.051 2.041 -6.102 2.083 -5.125 2.125 C-1.898 2.35 -1.898 2.35 0 0 Z " fill="#F5F5F5" transform="translate(50,57)"/>
<path d="M0 0 C0.99 1.32 1.98 2.64 3 4 C0.712 5.03 -1.58 6.05 -3.875 7.062 C-4.851 7.504 -4.851 7.504 -5.848 7.955 C-7.54 8.697 -9.269 9.354 -11 10 C-11.66 9.67 -12.32 9.34 -13 9 C-12.229 8.518 -11.458 8.036 -10.664 7.539 C-9.661 6.907 -8.658 6.276 -7.625 5.625 C-6.627 4.999 -5.63 4.372 -4.602 3.727 C-1.975 2.107 -1.975 2.107 0 0 Z " fill="#D9D9D9" transform="translate(85,72)"/>
<path d="M0 0 C3.469 6.21 4.38 13.967 4 21 C1.855 17.782 1.191 15.371 0.312 11.625 C0.041 10.504 -0.231 9.382 -0.512 8.227 C-0.987 5.087 -0.845 3.03 0 0 Z " fill="#A4A4A4" transform="translate(45,138)"/>
<path d="M0 0 C0.33 0.66 0.66 1.32 1 2 C1.99 2.33 2.98 2.66 4 3 C4 3.66 4 4.32 4 5 C3.196 5.289 2.391 5.578 1.562 5.875 C-1.133 6.733 -1.133 6.733 -2 9 C-2.66 6.36 -3.32 3.72 -4 1 C-2.68 0.67 -1.36 0.34 0 0 Z " fill="#151515" transform="translate(128,120)"/>
<path d="M0 0 C-0.33 0.99 -0.66 1.98 -1 3 C-1.66 3 -2.32 3 -3 3 C-3.66 4.32 -4.32 5.64 -5 7 C-6.65 5.35 -8.3 3.7 -10 2 C-6.598 -0.094 -3.947 -0.179 0 0 Z " fill="#F5F5F5" transform="translate(164,60)"/>
<path d="M0 0 C4.462 1.575 9.797 3.594 12 8 C10.68 8.99 9.36 9.98 8 11 C6.852 9.543 5.707 8.085 4.562 6.625 C3.605 5.407 3.605 5.407 2.629 4.164 C1 2 1 2 0 0 Z " fill="#F5F5F5" transform="translate(123,24)"/>
<path d="M0 0 C3.817 1.555 6.192 4.036 9 7 C8.67 7.66 8.34 8.32 8 9 C5.125 8.438 5.125 8.438 2 7 C0.625 3.375 0.625 3.375 0 0 Z " fill="#F5F5F5" transform="translate(146,111)"/>
<path d="M0 0 C2.97 0 5.94 0 9 0 C9 0.99 9 1.98 9 3 C10.65 3.33 12.3 3.66 14 4 C14 4.33 14 4.66 14 5 C9.839 5.082 6.053 4.982 2 4 C2.33 3.01 2.66 2.02 3 1 C2.01 0.67 1.02 0.34 0 0 Z " fill="#D9D9D9" transform="translate(61,34)"/>
<path d="M0 0 C2.97 0.495 2.97 0.495 6 1 C6.33 2.32 6.66 3.64 7 5 C5.02 5.99 5.02 5.99 3 7 C0 3.375 0 3.375 0 0 Z " fill="#F5F5F5" transform="translate(155,153)"/>
<path d="M0 0 C0.99 0.33 1.98 0.66 3 1 C3.33 2.98 3.66 4.96 4 7 C3.01 7.66 2.02 8.32 1 9 C0.34 9.66 -0.32 10.32 -1 11 C-1.99 10.67 -2.98 10.34 -4 10 C-3.34 10 -2.68 10 -2 10 C-1.34 6.7 -0.68 3.4 0 0 Z " fill="#F5F5F5" transform="translate(121,118)"/>
<path d="M0 0 C0 1.32 0 2.64 0 4 C-0.99 4 -1.98 4 -3 4 C-3.99 5.485 -3.99 5.485 -5 7 C-5.66 4.69 -6.32 2.38 -7 0 C-3.867 -1.044 -3.01 -0.934 0 0 Z " fill="#F5F5F5" transform="translate(104,121)"/>
<path d="M0 0 C0.66 0 1.32 0 2 0 C3.65 3.3 5.3 6.6 7 10 C7.66 10 8.32 10 9 10 C9.99 10.33 10.98 10.66 12 11 C11.34 11 10.68 11 10 11 C9.67 12.32 9.34 13.64 9 15 C4.982 10.594 1.797 6.271 -1 1 C-0.67 0.67 -0.34 0.34 0 0 Z " fill="#F5F5F5" transform="translate(57,123)"/>
<path d="M0 0 C0.66 0.33 1.32 0.66 2 1 C1.65 4.242 1.438 5.615 -1.062 7.812 C-1.702 8.204 -2.341 8.596 -3 9 C-3.33 7.02 -3.66 5.04 -4 3 C-2.68 2.01 -1.36 1.02 0 0 Z " fill="#F4F4F4" transform="translate(160,165)"/>
<path d="M0 0 C0 0.99 0 1.98 0 3 C0.99 4.485 0.99 4.485 2 6 C0.02 6.99 -1.96 7.98 -4 9 C-4.66 8.34 -5.32 7.68 -6 7 C-4.771 3.312 -3.061 2.276 0 0 Z " fill="#F5F5F5" transform="translate(161,158)"/>
<path d="M0 0 C1.65 0.33 3.3 0.66 5 1 C4.01 2.485 4.01 2.485 3 4 C2.34 4 1.68 4 1 4 C1.33 5.65 1.66 7.3 2 9 C-0.475 8.01 -0.475 8.01 -3 7 C-2.67 6.34 -2.34 5.68 -2 5 C-1.34 5.33 -0.68 5.66 0 6 C0 4.02 0 2.04 0 0 Z " fill="#D1D1D1" transform="translate(77,132)"/>
<path d="M0 0 C0.99 0 1.98 0 3 0 C3.33 4.29 3.66 8.58 4 13 C3.01 12.67 2.02 12.34 1 12 C0.67 8.04 0.34 4.08 0 0 Z " fill="#F5F5F5" transform="translate(107,132)"/>
<path d="M0 0 C1.145 0.34 1.145 0.34 2.312 0.688 C1.361 1.86 0.401 3.025 -0.562 4.188 C-1.096 4.837 -1.63 5.487 -2.18 6.156 C-2.677 6.662 -3.175 7.167 -3.688 7.688 C-4.347 7.688 -5.007 7.688 -5.688 7.688 C-5.915 4.884 -6.028 3.226 -4.5 0.812 C-2.688 -0.312 -2.688 -0.312 0 0 Z " fill="#F5F5F5" transform="translate(131.6875,113.3125)"/>
<path d="M0 0 C4.308 1.566 8.062 3.683 12 6 C8.521 7.16 7.658 6.775 4.312 5.562 C3.504 5.275 2.696 4.988 1.863 4.691 C1.248 4.463 0.634 4.235 0 4 C0 2.68 0 1.36 0 0 Z " fill="#F5F5F5" transform="translate(80,27)"/>
<path d="M0 0 C4.274 1.583 6.265 4.506 9 8 C8.34 8.66 7.68 9.32 7 10 C5.188 9.5 5.188 9.5 3 8 C1.738 5.414 0.844 2.748 0 0 Z " fill="#F5F5F5" transform="translate(130,21)"/>
<path d="M0 0 C0.33 0 0.66 0 1 0 C1.33 6.6 1.66 13.2 2 20 C-0.901 17.099 -0.858 13.932 -1 10 C-0.8 6.647 -0.443 3.329 0 0 Z " fill="#F5F5F5" transform="translate(43,120)"/>
<path d="M0 0 C1.485 0.99 1.485 0.99 3 2 C6.125 2.167 6.125 2.167 9 2 C6.872 4.341 4.884 5.707 2 7 C0.438 5.188 0.438 5.188 -1 3 C-0.67 2.01 -0.34 1.02 0 0 Z " fill="#F5F5F5" transform="translate(46,52)"/>
<path d="M0 0 C2.875 -0.125 2.875 -0.125 6 0 C6.66 0.66 7.32 1.32 8 2 C7.625 4.125 7.625 4.125 7 6 C6.01 5.67 5.02 5.34 4 5 C4 4.34 4 3.68 4 3 C2.68 2.67 1.36 2.34 0 2 C0 1.34 0 0.68 0 0 Z " fill="#F5F5F5" transform="translate(130,120)"/>
<path d="M0 0 C7.75 0.75 7.75 0.75 10 3 C8.35 3.33 6.7 3.66 5 4 C5.99 4.66 6.98 5.32 8 6 C6.02 6.33 4.04 6.66 2 7 C2.041 6.216 2.083 5.433 2.125 4.625 C2.287 1.839 2.287 1.839 0 0 Z " fill="#323232" transform="translate(143,95)"/>
<path d="M0 0 C1.32 0.66 2.64 1.32 4 2 C4 2.66 4 3.32 4 4 C-0.455 5.485 -0.455 5.485 -5 7 C-3.625 4.5 -3.625 4.5 -2 2 C-1.34 2 -0.68 2 0 2 C0 1.34 0 0.68 0 0 Z " fill="#F5F5F5" transform="translate(163,61)"/>
<path d="M0 0 C0.33 0.99 0.66 1.98 1 3 C-1.312 4.562 -1.312 4.562 -4 6 C-4.99 5.67 -5.98 5.34 -7 5 C-5.227 1.074 -4.52 0 0 0 Z " fill="#F5F5F5" transform="translate(59,43)"/>
<path d="M0 0 C1.418 0.115 2.834 0.243 4.25 0.375 C5.039 0.445 5.828 0.514 6.641 0.586 C9.086 1.015 10.848 1.786 13 3 C12.67 3.66 12.34 4.32 12 5 C10.373 4.55 8.748 4.089 7.125 3.625 C5.768 3.242 5.768 3.242 4.383 2.852 C2 2 2 2 0 0 Z " fill="#BDBDBD" transform="translate(72,17)"/>
<path d="M0 0 C3 3 3 3 3.293 5.043 C3.195 7.029 3.098 9.014 3 11 C2.01 10.67 1.02 10.34 0 10 C0 6.7 0 3.4 0 0 Z " fill="#F5F5F5" transform="translate(139,121)"/>
<path d="M0 0 C1.32 0 2.64 0 4 0 C4.33 1.32 4.66 2.64 5 4 C2.525 5.485 2.525 5.485 0 7 C0 6.01 0 5.02 0 4 C-0.66 3.67 -1.32 3.34 -2 3 C-1.34 2.34 -0.68 1.68 0 1 C0 0.67 0 0.34 0 0 Z " fill="#F5F5F5" transform="translate(167,75)"/>
<path d="M0 0 C0.99 0.33 1.98 0.66 3 1 C3 3.64 3 6.28 3 9 C2.34 9 1.68 9 1 9 C0.67 9.99 0.34 10.98 0 12 C0 8.04 0 4.08 0 0 Z " fill="#F5F5F5" transform="translate(34,106)"/>
<path d="M0 0 C-2.97 1.32 -5.94 2.64 -9 4 C-9.99 3.01 -10.98 2.02 -12 1 C-10.565 0.636 -9.127 0.284 -7.688 -0.062 C-6.887 -0.26 -6.086 -0.457 -5.262 -0.66 C-3 -1 -3 -1 0 0 Z " fill="#BDBDBD" transform="translate(179,63)"/>
<path d="M0 0 C4.875 4.625 4.875 4.625 6 8 C5.01 8.495 5.01 8.495 4 9 C3.01 8.67 2.02 8.34 1 8 C1 6.68 1 5.36 1 4 C0.702 2.658 0.378 1.321 0 0 Z " fill="#F5F5F5" transform="translate(108,172)"/>
<path d="M0 0 C0 0.66 0 1.32 0 2 C-2.64 2.99 -5.28 3.98 -8 5 C-8.33 4.01 -8.66 3.02 -9 2 C-5.629 0.502 -3.796 0 0 0 Z " fill="#F5F5F5" transform="translate(87,124)"/>
<path d="M0 0 C2.475 0.99 2.475 0.99 5 2 C2.64 4.097 1.454 4.969 -1.75 5.188 C-2.864 5.095 -2.864 5.095 -4 5 C-2.68 3.35 -1.36 1.7 0 0 Z " fill="#D2D2D2" transform="translate(77,88)"/>
<path d="M0 0 C2.97 0.495 2.97 0.495 6 1 C5.34 2.32 4.68 3.64 4 5 C1.525 4.01 1.525 4.01 -1 3 C-0.67 2.01 -0.34 1.02 0 0 Z " fill="#F5F5F5" transform="translate(85,20)"/>
<path d="M0 0 C0.66 0 1.32 0 2 0 C2.33 1.98 2.66 3.96 3 6 C2.34 6 1.68 6 1 6 C1 7.65 1 9.3 1 11 C0.67 11 0.34 11 0 11 C0 7.37 0 3.74 0 0 Z " fill="#F5F5F5" transform="translate(136,164)"/>
<path d="M0 0 C6.705 5.094 6.705 5.094 7.938 8.875 C7.958 9.576 7.979 10.278 8 11 C7.67 10.01 7.34 9.02 7 8 C5.685 7.298 4.349 6.635 3 6 C1.25 4.562 1.25 4.562 0 3 C0 2.01 0 1.02 0 0 Z " fill="#EBEBEB" transform="translate(72,160)"/>
<path d="M0 0 C-1.491 3.795 -3.757 5.61 -7 8 C-4.739 0 -4.739 0 0 0 Z " fill="#F5F5F5" transform="translate(34,93)"/>
<path d="M0 0 C0.66 0.33 1.32 0.66 2 1 C-0.25 3.062 -0.25 3.062 -3 5 C-5.312 4.75 -5.312 4.75 -7 4 C-4.614 2.108 -2.928 0.976 0 0 Z " fill="#F5F5F5" transform="translate(40,78)"/>
<path d="M0 0 C0.33 1.32 0.66 2.64 1 4 C-2.96 5.98 -2.96 5.98 -7 8 C-5.619 3.858 -3.402 2.678 0 0 Z " fill="#323232" transform="translate(44,70)"/>
<path d="M0 0 C0.66 0.33 1.32 0.66 2 1 C1.625 3.438 1.625 3.438 1 6 C0.01 6.495 0.01 6.495 -1 7 C-1.66 6.34 -2.32 5.68 -3 5 C-2.67 4.01 -2.34 3.02 -2 2 C-1.34 2 -0.68 2 0 2 C0 1.34 0 0.68 0 0 Z " fill="#F5F5F5" transform="translate(47,61)"/>
<path d="M0 0 C-0.639 0.454 -1.279 0.907 -1.938 1.375 C-4.097 2.839 -4.097 2.839 -5 5 C-5.99 4.34 -6.98 3.68 -8 3 C-8 2.01 -8 1.02 -8 0 C-4.713 -0.8 -3.29 -1.097 0 0 Z " fill="#151515" transform="translate(88,52)"/>
<path d="M0 0 C0.66 0.66 1.32 1.32 2 2 C-1.96 3.98 -1.96 3.98 -6 6 C-6.66 5.34 -7.32 4.68 -8 4 C-5.36 2.68 -2.72 1.36 0 0 Z " fill="#F5F5F5" transform="translate(102,173)"/>
<path d="M0 0 C0.33 0.66 0.66 1.32 1 2 C1.99 2.33 2.98 2.66 4 3 C2.68 3 1.36 3 0 3 C-0.33 4.32 -0.66 5.64 -1 7 C-1.66 5.35 -2.32 3.7 -3 2 C-2.01 1.34 -1.02 0.68 0 0 Z " fill="#2B2B2B" transform="translate(77,129)"/>
<path d="M0 0 C-0.33 0.99 -0.66 1.98 -1 3 C-3.31 2.67 -5.62 2.34 -8 2 C-7 0 -7 0 -5.125 -0.688 C-3 -1 -3 -1 0 0 Z " fill="#F5F5F5" transform="translate(176,85)"/>
<path d="M0 0 C-0.99 1.485 -0.99 1.485 -2 3 C-2 2.34 -2 1.68 -2 1 C-5.118 1.646 -5.118 1.646 -6 4 C-7.32 3.34 -8.64 2.68 -10 2 C-6.598 -0.094 -3.947 -0.179 0 0 Z " fill="#F5F5F5" transform="translate(164,60)"/>
<path d="M0 0 C1.32 1.32 2.64 2.64 4 4 C2.35 4.66 0.7 5.32 -1 6 C-0.67 4.02 -0.34 2.04 0 0 Z " fill="#191919" transform="translate(124,133)"/>
<path d="M0 0 C0.33 0 0.66 0 1 0 C1.66 3.3 2.32 6.6 3 10 C2.01 10 1.02 10 0 10 C0 6.7 0 3.4 0 0 Z " fill="#F5F5F5" transform="translate(44,118)"/>
<path d="M0 0 C1.98 0.495 1.98 0.495 4 1 C3.67 2.65 3.34 4.3 3 6 C2.34 6 1.68 6 1 6 C1 5.01 1 4.02 1 3 C0.34 2.67 -0.32 2.34 -1 2 C-0.67 1.34 -0.34 0.68 0 0 Z " fill="#F5F5F5" transform="translate(154,108)"/>
<path d="M0 0 C0.66 0 1.32 0 2 0 C2.33 1.32 2.66 2.64 3 4 C1.35 4.66 -0.3 5.32 -2 6 C-1.34 4.02 -0.68 2.04 0 0 Z " fill="#F5F5F5" transform="translate(168,81)"/>
<path d="M0 0 C-0.66 1.98 -1.32 3.96 -2 6 C-3.32 4.68 -4.64 3.36 -6 2 C-2.25 0 -2.25 0 0 0 Z " fill="#F5F5F5" transform="translate(49,72)"/>
</svg>
